<?xml version="1.0" standalone="no"?>
<!DOCTYPE svg PUBLIC "-//W3C//DTD SVG 20010904//EN"
 "http://www.w3.org/TR/2001/REC-SVG-20010904/DTD/svg10.dtd">
<svg version="1.0" xmlns="http://www.w3.org/2000/svg"
 width="1080.000000pt" height="1080.000000pt" viewBox="0 0 1080.000000 1080.000000"
 preserveAspectRatio="xMidYMid meet">

<g transform="translate(0.000000,1080.000000) scale(0.100000,-0.100000)"
fill="#000000" stroke="none">
<path d="M2710 7440 l0 -220 121 0 c104 0 124 -3 135 -17 20 -26 20 -1635 1
-1651 -7 -7 -66 -13 -133 -14 l-119 -3 -3 -213 -3 -212 658 4 c617 4 757 9
843 34 88 25 184 73 242 120 25 20 57 46 71 57 15 11 27 24 27 30 0 6 18 31
39 55 22 25 48 64 57 88 10 23 22 42 26 42 4 0 8 9 8 20 0 11 5 20 10 20 6 0
10 15 10 34 0 19 5 38 10 41 6 3 10 17 10 31 0 14 5 34 10 45 14 25 14 299 0
313 -5 5 -10 18 -10 28 0 10 -4 26 -9 36 -5 9 -15 31 -22 47 -19 40 -67 95
-166 188 -29 27 -39 43 -36 57 3 11 9 20 12 20 17 0 141 132 141 150 0 6 3 10
8 10 8 0 32 49 32 67 0 7 4 13 9 13 25 0 35 329 12 410 -7 25 -15 60 -18 78
-3 17 -9 32 -14 32 -5 0 -9 6 -9 14 0 21 -49 106 -92 157 -21 26 -38 51 -38
55 0 5 -22 25 -47 44 -26 19 -56 44 -67 55 -12 11 -52 35 -91 53 -38 19 -83
40 -98 48 -16 8 -39 14 -52 14 -13 0 -27 5 -30 10 -3 6 -39 10 -80 10 -41 0
-77 5 -80 10 -4 6 -228 10 -641 10 l-634 0 0 -220z m1263 -235 c91 -18 207
-185 207 -300 0 -90 -83 -225 -162 -266 -35 -18 -58 -19 -270 -17 l-233 3 -3
278 c-1 183 1 285 8 298 11 19 19 20 213 16 111 -3 219 -8 240 -12z m40 -1034
c6 -6 19 -11 29 -11 10 0 18 -4 18 -10 0 -5 5 -10 11 -10 14 0 66 -56 84 -91
31 -59 45 -118 45 -191 0 -42 -4 -80 -10 -83 -5 -3 -10 -16 -10 -28 0 -23 -62
-123 -89 -144 -9 -7 -39 -24 -68 -38 -50 -24 -57 -25 -271 -25 -174 0 -222 3
-231 14 -8 9 -11 101 -9 317 l3 304 30 6 c52 12 455 3 468 -10z"/>
<path d="M5060 7440 l0 -220 125 0 c121 0 125 -1 130 -22 3 -13 4 -390 3 -838
l-3 -815 -127 -3 -128 -3 0 -214 0 -215 515 0 515 0 -3 213 -2 212 -107 5
c-58 3 -110 9 -115 13 -4 5 -9 116 -11 246 -2 189 0 240 10 249 9 7 100 13
258 15 135 3 272 10 305 16 33 6 77 13 98 17 20 3 40 10 43 15 3 5 18 9 34 9
16 0 32 5 35 10 3 6 13 10 21 10 8 0 40 16 70 35 30 19 56 35 59 35 15 0 133
113 173 165 12 16 41 68 63 115 23 47 45 93 50 102 5 10 9 34 9 53 0 19 4 35
9 35 10 0 24 121 24 215 -1 89 -13 185 -24 185 -5 0 -9 11 -9 24 0 14 -4 28
-10 31 -5 3 -10 13 -10 21 0 8 -16 40 -35 70 -19 30 -35 57 -35 60 0 5 -55 66
-108 120 -12 13 -51 43 -85 66 -34 23 -63 45 -65 50 -2 4 -12 8 -23 8 -10 0
-19 5 -19 10 0 6 -9 10 -19 10 -11 0 -22 4 -26 9 -3 5 -29 17 -58 26 -28 9
-60 20 -69 26 -10 5 -28 9 -41 9 -13 0 -27 4 -32 9 -18 17 -174 22 -782 27
l-603 4 0 -220z m1155 -237 c133 -16 273 -115 292 -206 3 -15 10 -30 14 -33
12 -7 12 -219 0 -242 -5 -9 -15 -30 -22 -47 -18 -38 -86 -106 -124 -124 -104
-48 -178 -61 -348 -61 l-154 0 -11 25 c-8 18 -12 125 -12 347 0 290 2 323 17
340 16 18 29 19 148 14 71 -3 162 -9 200 -13z"/>
</g>
</svg>
