<svg id="svg" version="1.1" xmlns="http://www.w3.org/2000/svg" xmlns:xlink="http://www.w3.org/1999/xlink" width="400" height="400" viewBox="0, 0, 400,400"><g id="svgg"><path id="path0" d="M100.578 116.912 C 100.470 117.194,100.431 120.839,100.491 125.012 L 100.600 132.600 104.934 132.800 C 108.623 132.970,109.351 133.115,109.834 133.776 C 110.546 134.753,110.693 192.306,109.986 193.626 C 109.618 194.314,109.116 194.400,105.466 194.400 C 100.067 194.400,100.400 193.830,100.400 203.080 L 100.400 210.800 124.500 210.793 C 149.588 210.786,152.551 210.624,157.400 208.992 C 168.751 205.172,175.671 194.900,175.658 181.888 C 175.650 174.305,174.560 171.721,169.100 166.349 C 165.910 163.211,165.932 163.320,168.105 161.348 C 173.222 156.702,174.800 152.802,174.800 144.800 C 174.800 129.699,165.177 118.900,149.871 116.824 C 145.039 116.169,100.833 116.248,100.578 116.912 M187.583 118.100 C 187.562 120.252,187.563 131.644,187.584 132.265 C 187.595 132.580,189.019 132.773,192.015 132.865 C 195.396 132.968,196.519 133.141,196.809 133.600 C 197.224 134.258,197.368 192.696,196.957 193.767 C 196.755 194.293,195.944 194.400,192.157 194.400 L 187.600 194.400 187.600 202.600 L 187.600 210.800 206.600 210.800 L 225.600 210.800 225.600 202.808 C 225.600 193.560,226.138 194.475,220.600 194.301 L 217.400 194.200 217.400 185.000 L 217.400 175.800 227.400 175.555 C 232.900 175.421,238.210 175.114,239.200 174.873 C 243.711 173.776,245.746 173.142,247.312 172.344 C 258.273 166.759,263.358 158.043,263.385 144.800 C 263.396 139.222,263.224 138.358,261.243 134.000 C 257.087 124.861,246.729 118.177,234.600 116.809 C 232.600 116.583,221.353 116.402,209.300 116.401 L 187.600 116.400 187.583 118.100 M148.000 133.581 C 156.044 137.885,156.470 150.048,148.716 154.037 C 146.439 155.208,131.042 155.199,130.414 154.026 C 129.940 153.140,129.840 134.458,130.306 133.760 C 130.864 132.924,131.830 132.837,139.400 132.941 C 144.808 133.015,147.288 133.200,148.000 133.581 M232.693 133.938 C 244.256 137.548,245.343 154.180,234.267 158.017 C 230.345 159.375,220.065 160.214,217.833 159.357 C 216.815 158.967,216.880 133.841,217.900 133.200 C 218.998 132.509,229.852 133.051,232.693 133.938 M149.422 171.954 C 156.785 175.299,157.503 187.837,150.614 192.776 L 148.628 194.200 139.830 194.329 C 131.799 194.446,130.986 194.396,130.516 193.752 C 129.975 193.013,129.744 173.997,130.252 172.100 C 130.593 170.829,146.676 170.707,149.422 171.954 M337.790 230.800 C 337.790 248.070,337.840 255.135,337.900 246.500 C 337.960 237.865,337.960 223.735,337.900 215.100 C 337.840 206.465,337.790 213.530,337.790 230.800 M337.757 269.200 C 337.757 272.170,337.820 273.385,337.897 271.900 C 337.974 270.415,337.974 267.985,337.897 266.500 C 337.820 265.015,337.757 266.230,337.757 269.200 M337.786 302.600 C 337.786 313.820,337.837 318.468,337.900 312.928 C 337.962 307.388,337.962 298.208,337.900 292.528 C 337.837 286.848,337.786 291.380,337.786 302.600 " stroke="none" fill="#3782ca" fill-rule="evenodd"></path><path id="path1" d="M67.750 30.616 C 67.063 30.916,66.378 31.480,66.229 31.869 C 65.997 32.473,65.902 32.491,65.585 31.989 C 65.333 31.590,65.210 31.562,65.206 31.900 C 65.203 32.175,64.948 32.400,64.641 32.400 C 63.047 32.400,57.811 35.751,55.126 38.489 C 54.095 39.540,53.015 40.409,52.726 40.419 C 52.437 40.430,51.390 41.432,50.400 42.646 C 49.410 43.860,48.285 45.194,47.900 45.610 C 47.515 46.026,47.200 46.495,47.200 46.652 C 47.200 46.809,46.915 47.252,46.567 47.637 C 45.315 49.020,42.110 55.246,41.883 56.737 C 41.820 57.147,41.461 57.953,41.084 58.527 C 40.708 59.102,40.400 59.950,40.400 60.412 C 40.400 60.874,40.213 61.601,39.985 62.028 C 39.703 62.555,39.577 84.773,39.592 131.429 C 39.607 177.849,39.482 199.974,39.207 199.804 C 38.932 199.634,38.800 220.733,38.800 264.976 C 38.800 303.798,38.947 330.400,39.162 330.400 C 39.362 330.400,39.539 331.885,39.556 333.700 C 39.599 338.359,40.379 341.528,42.113 344.100 C 42.521 344.705,42.730 345.200,42.578 345.200 C 42.426 345.200,42.549 345.498,42.851 345.861 C 43.153 346.225,43.336 346.593,43.259 346.679 C 42.931 347.039,44.146 349.200,44.675 349.200 C 45.072 349.200,45.174 349.452,45.000 350.000 C 44.860 350.440,44.919 350.800,45.130 350.800 C 45.341 350.800,45.625 351.245,45.761 351.788 C 45.898 352.332,46.372 352.971,46.816 353.209 C 47.259 353.446,47.521 353.805,47.396 354.006 C 47.160 354.388,55.359 362.800,55.967 362.800 C 56.159 362.800,56.846 363.295,57.494 363.900 C 58.143 364.505,59.197 365.264,59.837 365.586 C 60.476 365.908,61.495 366.505,62.100 366.913 C 62.724 367.334,63.200 367.463,63.200 367.212 C 63.200 366.968,63.584 367.127,64.054 367.564 C 64.524 368.002,65.559 368.684,66.354 369.080 C 68.135 369.967,359.594 370.435,360.657 369.553 C 361.341 368.985,361.483 73.022,360.800 72.600 C 360.580 72.464,360.400 72.003,360.400 71.576 C 360.400 70.956,360.119 70.800,359.000 70.800 C 358.150 70.800,357.598 70.996,357.594 71.300 C 357.590 71.637,357.492 71.660,357.294 71.369 C 356.678 70.466,338.351 70.702,338.112 71.616 C 337.999 72.047,337.748 72.400,337.553 72.400 C 337.046 72.400,337.092 112.286,337.600 112.600 C 337.865 112.764,338.000 149.671,338.000 222.024 C 338.000 294.541,337.866 331.200,337.600 331.200 C 337.349 331.200,337.200 333.800,337.200 338.200 C 337.200 342.600,337.349 345.200,337.600 345.200 C 337.820 345.200,338.000 345.650,338.000 346.200 C 338.000 347.154,337.892 347.200,335.624 347.200 C 334.317 347.200,333.135 347.381,332.999 347.602 C 332.658 348.154,200.138 348.147,199.797 347.595 C 199.638 347.338,178.317 347.200,138.571 347.200 C 104.792 347.200,77.279 347.045,76.895 346.852 C 76.513 346.661,75.335 346.118,74.277 345.646 C 71.951 344.608,67.862 341.361,67.229 340.048 C 66.977 339.525,66.657 339.210,66.519 339.348 C 66.256 339.611,65.067 336.671,64.193 333.600 C 63.912 332.610,63.528 331.830,63.341 331.867 C 63.153 331.903,63.000 329.986,63.000 327.605 C 63.000 325.224,63.135 323.360,63.301 323.462 C 63.668 323.689,64.485 321.661,64.207 321.212 C 64.098 321.035,64.285 320.661,64.623 320.381 C 64.960 320.101,65.150 319.646,65.043 319.369 C 64.937 319.092,65.109 318.767,65.425 318.646 C 65.741 318.524,66.000 317.969,66.000 317.413 C 66.000 316.856,66.178 316.400,66.396 316.400 C 66.614 316.400,67.199 315.772,67.696 315.005 C 68.193 314.238,68.748 313.608,68.929 313.605 C 69.482 313.597,70.380 312.513,70.081 312.214 C 69.926 312.060,69.988 311.993,70.219 312.067 C 70.757 312.238,74.400 310.383,74.400 309.937 C 74.400 309.752,74.670 309.600,75.000 309.600 C 75.330 309.600,75.600 309.420,75.600 309.200 C 75.600 308.980,75.791 308.800,76.024 308.800 C 76.257 308.800,76.320 309.025,76.165 309.300 C 75.939 309.700,75.990 309.700,76.421 309.300 C 76.718 309.025,77.734 308.800,78.680 308.800 C 79.626 308.800,80.400 308.649,80.400 308.464 C 80.400 307.979,82.388 307.145,82.856 307.434 C 83.372 307.753,88.094 307.969,88.557 307.694 C 88.753 307.578,93.073 307.538,98.157 307.605 C 103.240 307.672,108.480 307.705,109.800 307.679 C 111.120 307.652,114.000 307.635,116.200 307.641 C 139.256 307.704,169.089 307.611,181.517 307.436 C 191.141 307.301,196.747 307.362,196.600 307.601 C 196.239 308.185,317.149 308.140,317.853 307.556 C 318.154 307.306,318.400 306.483,318.400 305.727 C 318.400 304.908,318.562 304.453,318.802 304.601 C 319.072 304.768,319.202 259.906,319.198 168.825 C 319.194 85.732,319.047 32.800,318.821 32.800 C 318.617 32.800,318.394 32.215,318.325 31.500 L 318.200 30.200 193.600 30.135 C 89.124 30.080,68.798 30.158,67.750 30.616 M152.065 116.166 C 173.416 120.283,183.768 146.319,169.783 160.723 L 167.291 163.289 170.411 166.460 C 177.519 173.684,179.031 187.792,173.541 195.662 C 173.133 196.246,172.800 196.911,172.800 197.141 C 172.800 197.816,169.141 202.443,166.988 204.490 C 163.538 207.771,157.447 210.465,151.800 211.207 C 147.379 211.788,100.670 211.710,100.080 211.120 C 99.573 210.613,99.361 195.489,99.843 194.233 C 100.045 193.707,100.856 193.600,104.643 193.600 L 109.200 193.600 109.200 163.800 L 109.200 134.000 105.174 134.000 C 99.189 134.000,99.600 134.663,99.600 125.019 C 99.600 120.534,99.709 116.581,99.843 116.233 C 100.188 115.334,147.437 115.274,152.065 116.166 M240.087 116.686 C 258.298 121.640,267.652 136.270,263.432 153.200 C 259.407 169.346,249.628 175.806,228.400 176.342 L 218.200 176.600 218.200 185.000 L 218.200 193.400 222.000 193.510 C 224.990 193.597,225.907 193.763,226.300 194.287 C 226.994 195.212,227.012 210.428,226.320 211.120 C 225.629 211.811,187.571 211.811,186.880 211.120 C 186.373 210.613,186.161 195.489,186.643 194.233 C 186.843 193.710,187.634 193.600,191.194 193.600 C 194.339 193.600,195.624 193.453,195.954 193.056 C 196.282 192.660,196.377 184.562,196.303 163.356 L 196.200 134.200 191.800 134.000 C 189.380 133.890,187.175 133.654,186.900 133.476 C 186.184 133.013,186.183 116.777,186.899 116.061 C 187.882 115.078,236.267 115.647,240.087 116.686 M131.043 134.633 C 130.473 136.117,130.780 153.086,131.386 153.588 C 132.430 154.455,147.137 153.992,148.619 153.045 C 155.178 148.855,154.774 138.157,147.920 134.566 C 146.242 133.687,131.383 133.746,131.043 134.633 M218.000 146.160 L 218.000 158.400 224.134 158.400 C 238.146 158.400,243.707 152.565,240.135 141.610 C 238.364 136.181,234.499 134.267,224.900 134.066 L 218.000 133.921 218.000 146.160 M131.280 172.480 C 130.772 172.988,130.570 190.901,131.052 192.700 C 131.425 194.092,146.590 194.099,149.195 192.708 C 156.341 188.894,155.816 174.798,148.440 172.436 C 146.499 171.814,131.909 171.851,131.280 172.480 " stroke="none" fill="#fbfbec" fill-rule="evenodd"></path><path id="path2" d="M352.900 71.076 C 353.285 71.176,353.915 71.176,354.300 71.076 C 354.685 70.975,354.370 70.893,353.600 70.893 C 352.830 70.893,352.515 70.975,352.900 71.076 M99.843 116.233 C 99.491 117.151,99.544 133.118,99.900 133.338 C 100.065 133.441,100.200 129.626,100.200 124.862 L 100.200 116.200 125.800 116.200 L 151.400 116.200 154.600 117.147 C 162.411 119.459,168.728 124.528,172.207 131.276 C 172.853 132.528,173.442 133.492,173.516 133.417 C 174.076 132.858,170.398 127.209,167.697 124.478 C 163.059 119.789,158.624 117.431,152.065 116.166 C 147.437 115.274,100.188 115.334,99.843 116.233 M186.899 116.061 C 186.183 116.777,186.184 133.013,186.900 133.476 C 187.175 133.654,189.380 133.890,191.800 134.000 L 196.200 134.200 196.303 163.356 C 196.377 184.562,196.282 192.660,195.954 193.056 C 195.624 193.453,194.339 193.600,191.194 193.600 C 187.634 193.600,186.843 193.710,186.643 194.233 C 186.161 195.489,186.373 210.613,186.880 211.120 C 187.571 211.811,225.629 211.811,226.320 211.120 C 227.012 210.428,226.994 195.212,226.300 194.287 C 225.907 193.763,224.990 193.597,222.000 193.510 L 218.200 193.400 218.200 185.000 L 218.200 176.600 228.400 176.367 C 235.017 176.216,238.951 175.967,239.600 175.657 C 240.498 175.228,240.436 175.207,239.000 175.449 C 238.120 175.598,232.990 175.828,227.600 175.960 L 217.800 176.200 217.800 185.000 L 217.800 193.800 221.578 193.916 C 223.656 193.980,225.591 194.227,225.878 194.465 C 226.728 195.170,226.624 210.628,225.767 210.957 C 224.941 211.274,188.259 211.274,187.433 210.957 C 186.612 210.642,186.470 195.290,187.280 194.480 C 187.589 194.171,189.194 193.998,191.780 193.994 C 193.991 193.991,196.026 193.844,196.303 193.669 C 196.700 193.416,196.784 187.130,196.703 163.575 L 196.600 133.800 192.138 133.687 C 186.378 133.542,186.760 134.223,186.892 124.349 L 187.000 116.200 212.000 116.217 L 237.000 116.233 240.600 117.335 C 249.496 120.059,255.778 124.450,260.138 130.993 C 260.722 131.869,261.200 132.457,261.200 132.301 C 261.200 128.083,249.109 119.140,240.087 116.686 C 236.267 115.647,187.882 115.078,186.899 116.061 M261.790 133.980 C 262.125 134.629,262.400 135.429,262.400 135.757 C 262.400 136.084,262.568 136.457,262.774 136.584 C 263.002 136.725,263.019 136.364,262.818 135.663 C 262.438 134.338,261.663 132.800,261.376 132.800 C 261.268 132.800,261.454 133.331,261.790 133.980 M104.900 133.898 L 109.200 134.027 109.200 163.814 L 109.200 193.600 104.643 193.600 C 100.856 193.600,100.045 193.707,99.843 194.233 C 99.361 195.489,99.573 210.613,100.080 211.120 C 100.670 211.710,147.379 211.788,151.800 211.207 C 157.852 210.412,163.651 207.732,167.479 203.961 C 170.156 201.324,173.092 197.359,172.676 196.943 C 172.535 196.801,172.292 197.026,172.136 197.443 C 171.170 200.033,165.673 205.483,162.127 207.366 C 155.190 211.049,153.123 211.253,124.000 211.114 L 100.200 211.000 100.200 202.600 L 100.200 194.200 104.800 194.000 L 109.400 193.800 109.503 163.700 L 109.605 133.600 105.103 133.685 L 100.600 133.770 104.900 133.898 M130.643 134.233 C 130.157 135.499,130.373 153.413,130.880 153.920 C 131.743 154.783,146.223 154.554,148.222 153.646 C 155.343 150.411,155.807 139.693,149.040 134.741 L 147.480 133.600 139.183 133.600 C 131.986 133.600,130.853 133.684,130.643 134.233 M217.867 133.867 C 217.268 134.465,217.568 158.276,218.181 158.784 C 218.621 159.150,220.188 159.176,224.681 158.893 L 230.600 158.521 224.300 158.460 L 218.000 158.400 218.000 146.160 L 218.000 133.921 224.987 134.060 C 228.829 134.137,231.664 134.078,231.287 133.928 C 230.393 133.574,218.215 133.518,217.867 133.867 M147.920 134.566 C 154.774 138.157,155.178 148.855,148.619 153.045 C 147.137 153.992,132.430 154.455,131.386 153.588 C 130.780 153.086,130.473 136.117,131.043 134.633 C 131.383 133.746,146.242 133.687,147.920 134.566 M173.606 134.476 C 173.618 135.481,174.387 136.308,174.394 135.324 C 174.397 134.842,174.220 134.336,174.000 134.200 C 173.780 134.064,173.603 134.188,173.606 134.476 M234.266 135.370 C 238.450 137.318,240.449 140.486,241.208 146.375 C 241.437 148.153,241.506 148.303,241.548 147.120 C 241.755 141.255,236.973 134.371,232.713 134.404 C 232.431 134.406,233.130 134.841,234.266 135.370 M174.623 137.400 C 175.256 140.655,175.583 144.900,175.408 147.600 C 175.241 150.190,175.275 150.409,175.654 149.200 C 176.237 147.341,175.816 139.882,175.009 137.800 C 174.534 136.573,174.444 136.479,174.623 137.400 M263.496 138.200 C 264.719 143.031,263.447 154.094,261.117 158.906 C 260.503 160.175,260.000 161.332,260.000 161.479 C 260.000 162.878,254.323 168.682,250.688 170.999 C 250.076 171.389,249.654 171.787,249.750 171.883 C 250.463 172.596,256.600 167.233,258.838 163.942 C 263.443 157.168,266.008 143.876,263.766 138.400 C 263.275 137.201,263.236 137.172,263.496 138.200 M240.612 150.000 C 239.792 153.726,237.469 156.022,232.988 157.536 C 231.675 157.980,230.908 158.356,231.285 158.371 C 235.243 158.536,242.118 152.064,241.103 149.129 C 241.002 148.838,240.781 149.230,240.612 150.000 M174.428 152.691 C 173.887 154.937,170.813 159.702,168.968 161.153 C 168.376 161.619,168.075 162.000,168.298 162.000 C 170.093 162.000,175.726 152.967,175.097 151.097 C 175.006 150.823,174.704 151.541,174.428 152.691 M166.963 162.952 C 166.837 163.281,168.055 164.807,169.994 166.745 C 173.589 170.340,175.280 173.327,176.037 177.415 C 176.916 182.160,175.673 190.633,173.426 195.223 C 172.754 196.595,172.755 196.596,173.512 195.655 C 174.753 194.111,176.078 189.306,176.533 184.696 C 177.332 176.610,175.743 171.878,170.406 166.455 C 168.135 164.147,167.401 163.159,167.720 162.840 C 168.040 162.520,168.025 162.400,167.667 162.400 C 167.397 162.400,167.080 162.648,166.963 162.952 M130.880 172.080 C 130.136 172.824,130.202 192.938,130.951 193.559 C 131.336 193.879,133.967 193.981,139.651 193.900 L 147.800 193.782 139.547 193.691 C 131.361 193.601,131.291 193.593,131.052 192.700 C 130.530 190.751,130.775 172.919,131.330 172.458 C 131.664 172.181,134.738 171.974,139.630 171.900 L 147.400 171.782 139.380 171.691 C 133.570 171.625,131.228 171.732,130.880 172.080 M148.768 172.555 C 155.758 175.082,156.184 189.354,149.366 192.589 C 148.579 192.963,148.023 193.356,148.130 193.464 C 148.875 194.208,152.855 190.538,153.807 188.229 C 156.506 181.682,153.129 171.854,148.241 172.030 C 147.636 172.052,147.783 172.199,148.768 172.555 M247.400 172.688 C 246.740 173.048,244.940 173.746,243.400 174.239 C 241.860 174.732,240.870 175.148,241.200 175.163 C 242.484 175.223,249.200 172.728,249.200 172.190 C 249.200 171.857,248.634 172.014,247.400 172.688 M81.600 307.600 C 81.150 307.891,81.350 307.988,82.400 307.988 C 83.450 307.988,83.650 307.891,83.200 307.600 C 82.870 307.387,82.510 307.212,82.400 307.212 C 82.290 307.212,81.930 307.387,81.600 307.600 M88.538 307.700 C 88.436 307.865,92.713 308.000,98.043 308.000 C 103.373 308.000,107.634 307.900,107.512 307.779 C 107.170 307.437,88.748 307.360,88.538 307.700 M112.325 307.655 C 112.028 307.843,113.802 307.985,116.400 307.982 C 119.231 307.978,120.769 307.841,120.400 307.625 C 119.644 307.183,113.030 307.207,112.325 307.655 M166.352 307.638 C 166.031 307.841,172.199 307.990,181.076 307.994 C 190.376 307.998,196.445 307.850,196.589 307.617 C 196.892 307.128,167.125 307.148,166.352 307.638 " stroke="none" fill="#a8cade" fill-rule="evenodd"></path><path id="path3" d="M38.800 134.753 C 38.800 177.521,38.936 199.637,39.200 199.800 C 39.466 199.964,39.600 178.345,39.600 135.247 C 39.600 92.479,39.464 70.363,39.200 70.200 C 38.934 70.036,38.800 91.655,38.800 134.753 M337.203 221.735 C 337.203 281.941,337.337 331.200,337.501 331.200 C 337.892 331.200,337.892 112.959,337.501 112.569 C 337.337 112.404,337.203 161.529,337.203 221.735 M100.179 116.511 C 100.071 116.792,100.032 120.707,100.091 125.211 L 100.200 133.400 104.900 133.513 L 109.600 133.625 109.600 163.636 C 109.600 183.542,109.735 193.564,110.000 193.400 C 110.697 192.969,110.535 134.737,109.834 133.776 C 109.351 133.115,108.623 132.970,104.934 132.800 L 100.600 132.600 100.600 124.600 L 100.600 116.600 126.600 116.600 C 140.900 116.600,151.610 116.483,150.400 116.340 C 145.880 115.804,100.390 115.960,100.179 116.511 M187.067 116.267 C 186.561 116.773,186.761 132.601,187.280 133.120 C 187.598 133.438,189.313 133.600,192.347 133.600 C 198.124 133.600,197.804 133.066,191.867 132.800 L 187.400 132.600 187.315 125.800 C 187.268 122.060,187.324 118.399,187.440 117.664 L 187.650 116.329 212.725 116.464 C 226.516 116.539,236.720 116.485,235.400 116.343 C 232.179 115.999,187.405 115.928,187.067 116.267 M240.144 117.509 C 240.278 117.727,240.854 117.994,241.424 118.103 C 242.647 118.336,242.221 117.817,240.850 117.402 C 240.258 117.223,239.992 117.263,240.144 117.509 M156.000 118.000 C 156.330 118.213,156.960 118.378,157.400 118.366 L 158.200 118.344 157.400 118.000 C 156.204 117.486,155.205 117.486,156.000 118.000 M244.800 118.994 C 244.800 119.315,249.665 121.669,249.881 121.452 C 249.991 121.342,248.988 120.701,247.652 120.026 C 245.195 118.786,244.800 118.643,244.800 118.994 M161.600 120.146 C 161.600 120.256,162.140 120.730,162.800 121.200 C 163.460 121.670,164.000 121.964,164.000 121.854 C 164.000 121.744,163.460 121.270,162.800 120.800 C 162.140 120.330,161.600 120.036,161.600 120.146 M256.000 126.276 C 256.000 126.496,256.360 127.002,256.800 127.400 C 257.240 127.798,257.600 127.944,257.600 127.724 C 257.600 127.504,257.240 126.998,256.800 126.600 C 256.360 126.202,256.000 126.056,256.000 126.276 M260.820 132.800 C 260.811 133.514,261.476 134.657,261.746 134.388 C 261.849 134.284,261.686 133.749,261.381 133.199 C 261.061 132.620,260.825 132.452,260.820 132.800 M131.396 133.207 C 131.239 133.460,134.117 133.584,139.476 133.554 C 144.695 133.525,147.203 133.391,146.200 133.196 C 143.824 132.732,131.684 132.741,131.396 133.207 M172.812 133.200 C 172.812 133.530,172.987 134.070,173.200 134.400 C 173.545 134.933,173.588 134.933,173.588 134.400 C 173.588 134.070,173.413 133.530,173.200 133.200 C 172.855 132.667,172.812 132.667,172.812 133.200 M218.200 133.200 C 218.038 133.461,220.214 133.578,224.476 133.537 C 229.719 133.486,230.450 133.418,228.200 133.187 C 223.898 132.745,218.477 132.752,218.200 133.200 M130.173 143.800 C 130.173 149.300,130.230 151.605,130.299 148.923 C 130.368 146.241,130.368 141.741,130.299 138.923 C 130.230 136.105,130.174 138.300,130.173 143.800 M262.400 136.900 C 262.400 137.201,262.653 137.793,262.962 138.216 C 263.488 138.935,263.511 138.913,263.314 137.886 C 263.092 136.722,262.400 135.975,262.400 136.900 M174.666 140.000 C 174.801 141.210,174.977 142.275,175.056 142.367 C 175.394 142.758,175.152 138.944,174.804 138.400 C 174.548 137.999,174.502 138.530,174.666 140.000 M239.209 138.490 C 239.204 138.650,239.559 139.370,239.999 140.090 C 240.438 140.811,240.798 141.745,240.799 142.167 C 240.799 142.588,240.907 142.826,241.038 142.695 C 241.431 142.302,240.823 140.269,239.994 139.200 C 239.567 138.650,239.214 138.331,239.209 138.490 M152.828 139.076 C 152.918 140.115,153.544 140.996,153.572 140.124 C 153.587 139.642,153.420 139.136,153.200 139.000 C 152.980 138.864,152.813 138.898,152.828 139.076 M174.867 148.450 C 174.830 149.028,174.705 150.108,174.589 150.850 C 174.396 152.086,174.415 152.117,174.808 151.214 C 175.045 150.671,175.170 149.591,175.086 148.814 C 174.977 147.792,174.916 147.691,174.867 148.450 M263.060 151.503 C 262.763 151.983,262.268 155.023,262.525 154.789 C 262.652 154.672,262.927 153.817,263.136 152.889 C 263.497 151.282,263.472 150.836,263.060 151.503 M148.799 153.449 L 147.800 154.033 148.800 153.767 C 149.914 153.470,150.214 153.281,149.966 153.033 C 149.874 152.941,149.349 153.128,148.799 153.449 M239.045 154.188 C 238.680 154.744,238.559 155.200,238.777 155.200 C 239.220 155.200,240.164 153.630,239.887 153.353 C 239.789 153.255,239.410 153.631,239.045 154.188 M135.720 154.698 C 137.655 154.772,140.715 154.771,142.520 154.697 C 144.324 154.623,142.740 154.563,139.000 154.564 C 135.260 154.564,133.784 154.625,135.720 154.698 M261.000 158.000 C 260.850 158.473,260.817 158.950,260.927 159.060 C 261.037 159.170,261.250 158.873,261.400 158.400 C 261.550 157.927,261.583 157.450,261.473 157.340 C 261.363 157.230,261.150 157.527,261.000 158.000 M132.400 171.456 C 135.608 171.736,148.689 171.777,148.263 171.506 C 148.008 171.344,144.020 171.240,139.400 171.273 C 134.780 171.307,131.630 171.389,132.400 171.456 M130.175 182.800 C 130.175 188.630,130.231 191.015,130.299 188.100 C 130.367 185.185,130.367 180.415,130.299 177.500 C 130.231 174.585,130.175 176.970,130.175 182.800 M239.200 174.800 L 237.800 175.095 239.200 175.119 C 239.970 175.133,240.960 174.989,241.400 174.800 L 242.200 174.456 241.400 174.481 C 240.960 174.494,239.970 174.638,239.200 174.800 M153.111 175.974 C 153.482 176.620,153.864 177.070,153.960 176.974 C 154.205 176.728,153.133 174.800,152.751 174.800 C 152.578 174.800,152.740 175.328,153.111 175.974 M176.131 181.000 C 176.133 182.540,176.205 183.121,176.292 182.291 C 176.379 181.461,176.377 180.201,176.289 179.491 C 176.200 178.781,176.129 179.460,176.131 181.000 M154.663 180.080 C 155.000 181.849,155.200 182.001,155.200 180.490 C 155.200 179.807,155.023 179.138,154.806 179.004 C 154.560 178.852,154.506 179.255,154.663 180.080 M154.854 184.200 C 154.819 184.640,154.689 185.450,154.567 186.000 C 154.375 186.863,154.407 186.903,154.798 186.290 C 155.047 185.899,155.177 185.089,155.086 184.490 C 154.978 183.779,154.897 183.679,154.854 184.200 M174.849 189.600 C 174.816 189.930,174.689 190.650,174.567 191.200 C 174.375 192.064,174.407 192.103,174.799 191.488 C 175.048 191.097,175.175 190.377,175.081 189.888 C 174.986 189.400,174.882 189.270,174.849 189.600 M100.179 194.511 C 99.711 195.731,100.199 210.934,100.710 211.037 C 100.991 211.094,101.036 211.049,100.810 210.937 C 100.261 210.664,100.251 195.339,100.800 195.000 C 101.020 194.864,101.200 194.583,101.200 194.376 C 101.200 193.816,100.405 193.921,100.179 194.511 M173.063 194.883 C 172.738 196.125,172.985 196.189,173.526 195.002 C 173.777 194.451,173.828 194.000,173.638 194.000 C 173.448 194.000,173.189 194.397,173.063 194.883 M187.067 194.667 C 186.920 194.813,186.814 198.548,186.832 202.967 C 186.849 207.385,186.928 210.820,187.008 210.600 C 187.139 210.237,187.509 194.400,187.386 194.400 C 187.357 194.400,187.213 194.520,187.067 194.667 M225.516 202.736 C 225.425 209.299,225.508 211.058,225.900 210.907 C 226.519 210.669,226.630 194.989,226.016 194.610 C 225.776 194.461,225.588 197.516,225.516 202.736 M171.271 198.035 C 170.981 198.499,170.821 198.955,170.915 199.049 C 171.193 199.326,172.088 198.064,171.937 197.610 C 171.860 197.380,171.560 197.571,171.271 198.035 M162.624 206.613 C 161.636 207.360,162.285 207.352,163.600 206.600 C 164.180 206.268,164.348 206.028,164.000 206.027 C 163.670 206.026,163.051 206.290,162.624 206.613 M159.000 208.400 C 158.229 208.731,158.231 208.745,159.076 208.772 C 159.558 208.787,160.064 208.620,160.200 208.400 C 160.492 207.927,160.101 207.927,159.000 208.400 M154.400 210.000 C 153.867 210.345,153.867 210.388,154.400 210.388 C 154.730 210.388,155.270 210.213,155.600 210.000 C 156.133 209.655,156.133 209.612,155.600 209.612 C 155.270 209.612,154.730 209.787,154.400 210.000 M80.400 308.311 C 80.400 308.481,81.120 308.552,82.000 308.469 C 82.880 308.385,83.600 308.245,83.600 308.158 C 83.600 308.071,82.880 308.000,82.000 308.000 C 81.120 308.000,80.400 308.140,80.400 308.311 M115.900 308.300 C 131.355 308.358,156.645 308.358,172.100 308.300 C 187.555 308.242,174.910 308.195,144.000 308.195 C 113.090 308.195,100.445 308.242,115.900 308.300 M62.800 323.910 C 62.800 324.373,62.981 324.864,63.201 325.001 C 63.431 325.143,63.549 324.901,63.478 324.435 C 63.303 323.286,62.800 322.897,62.800 323.910 M38.800 331.624 C 38.800 332.337,38.967 332.744,39.200 332.600 C 39.420 332.464,39.600 331.913,39.600 331.376 C 39.600 330.839,39.420 330.400,39.200 330.400 C 38.980 330.400,38.800 330.951,38.800 331.624 M62.800 331.224 C 62.800 331.677,62.980 331.936,63.200 331.800 C 63.420 331.664,63.600 331.293,63.600 330.976 C 63.600 330.659,63.420 330.400,63.200 330.400 C 62.980 330.400,62.800 330.771,62.800 331.224 M337.200 345.976 C 337.200 346.403,337.380 346.864,337.600 347.000 C 337.827 347.140,338.000 346.804,338.000 346.224 C 338.000 345.661,337.820 345.200,337.600 345.200 C 337.380 345.200,337.200 345.549,337.200 345.976 M328.000 347.600 L 324.200 347.847 328.476 347.923 C 330.982 347.968,332.855 347.834,333.000 347.600 C 333.136 347.380,332.922 347.234,332.524 347.277 C 332.126 347.319,330.090 347.464,328.000 347.600 M228.731 347.900 C 244.203 347.958,269.403 347.958,284.731 347.900 C 300.059 347.842,287.400 347.794,256.600 347.794 C 225.800 347.795,213.259 347.842,228.731 347.900 " stroke="none" fill="#9bb4ca" fill-rule="evenodd"></path><path id="path4" d="M152.400 117.145 C 153.170 117.319,154.250 117.603,154.800 117.776 C 155.582 118.022,155.699 117.983,155.335 117.600 C 155.079 117.330,153.999 117.046,152.935 116.969 C 151.238 116.846,151.172 116.868,152.400 117.145 M236.500 117.076 C 236.885 117.176,237.515 117.176,237.900 117.076 C 238.285 116.975,237.970 116.893,237.200 116.893 C 236.430 116.893,236.115 116.975,236.500 117.076 M242.606 118.410 C 242.706 118.572,243.235 118.790,243.782 118.894 C 244.329 118.999,244.694 118.952,244.594 118.790 C 244.494 118.628,243.965 118.410,243.418 118.306 C 242.871 118.201,242.506 118.248,242.606 118.410 M158.546 119.002 C 159.996 119.759,160.434 119.751,159.424 118.987 C 158.996 118.664,158.366 118.401,158.024 118.402 C 157.681 118.404,157.916 118.674,158.546 119.002 M187.314 123.400 C 187.317 124.500,187.395 124.903,187.487 124.295 C 187.579 123.686,187.577 122.786,187.482 122.295 C 187.387 121.803,187.311 122.300,187.314 123.400 M255.083 125.588 C 255.454 126.021,255.838 126.296,255.936 126.198 C 256.174 125.959,255.195 124.800,254.755 124.800 C 254.564 124.800,254.711 125.155,255.083 125.588 M187.334 128.400 C 187.334 130.050,187.405 130.725,187.491 129.900 C 187.578 129.075,187.578 127.725,187.491 126.900 C 187.405 126.075,187.334 126.750,187.334 128.400 M170.456 128.945 C 170.739 129.575,171.042 129.873,171.131 129.606 C 171.220 129.340,170.989 128.824,170.618 128.461 C 169.986 127.842,169.976 127.873,170.456 128.945 M258.206 128.912 C 258.592 129.524,259.009 129.924,259.132 129.801 C 259.255 129.678,258.939 129.178,258.430 128.689 L 257.504 127.800 258.206 128.912 M172.133 132.171 C 172.385 132.705,172.655 133.078,172.732 133.001 C 172.981 132.753,172.358 131.200,172.011 131.200 C 171.826 131.200,171.881 131.637,172.133 132.171 M217.467 133.467 C 216.820 134.113,217.173 159.104,217.833 159.357 C 218.999 159.805,227.369 159.557,230.200 158.991 C 232.957 158.440,232.966 158.434,230.800 158.601 C 222.317 159.253,218.562 159.277,218.068 158.682 C 217.684 158.220,217.594 155.162,217.683 145.639 C 217.748 138.797,217.785 133.200,217.767 133.200 C 217.748 133.200,217.613 133.320,217.467 133.467 M196.705 163.629 L 196.810 193.582 195.905 193.792 C 195.407 193.907,193.290 194.053,191.200 194.117 L 187.400 194.234 192.057 194.317 C 195.986 194.387,196.752 194.301,196.957 193.767 C 197.311 192.844,197.255 134.081,196.900 133.862 C 196.735 133.760,196.647 147.155,196.705 163.629 M231.400 134.000 C 231.840 134.189,232.560 134.344,233.000 134.344 L 233.800 134.344 233.000 134.000 C 232.560 133.811,231.840 133.656,231.400 133.656 L 230.600 133.656 231.400 134.000 M173.434 135.165 C 173.596 135.476,173.861 136.286,174.023 136.965 C 174.294 138.100,174.321 138.118,174.359 137.176 C 174.382 136.614,174.117 135.804,173.770 135.376 C 173.424 134.949,173.273 134.854,173.434 135.165 M235.200 135.191 C 235.200 135.416,235.379 135.600,235.599 135.600 C 235.818 135.600,236.718 136.251,237.599 137.047 C 238.479 137.842,239.200 138.325,239.200 138.119 C 239.200 137.694,237.926 136.540,236.300 135.491 C 235.695 135.101,235.200 134.966,235.200 135.191 M152.073 137.800 C 152.323 138.350,152.684 138.800,152.873 138.800 C 153.063 138.800,152.924 138.350,152.563 137.800 C 152.203 137.250,151.843 136.800,151.763 136.800 C 151.683 136.800,151.822 137.250,152.073 137.800 M263.397 145.074 C 263.396 148.482,263.513 150.850,263.657 150.335 C 264.023 149.035,264.053 139.903,263.694 139.339 C 263.532 139.086,263.399 141.666,263.397 145.074 M153.792 144.200 C 153.797 147.806,153.832 147.997,154.149 146.137 C 154.352 144.942,154.350 143.259,154.144 142.137 C 153.830 140.435,153.788 140.685,153.792 144.200 M174.806 144.924 C 174.802 146.639,174.948 147.556,175.200 147.400 C 175.711 147.084,175.711 143.591,175.200 142.800 C 174.929 142.380,174.810 143.017,174.806 144.924 M241.693 146.400 C 241.693 147.170,241.775 147.485,241.876 147.100 C 241.976 146.715,241.976 146.085,241.876 145.700 C 241.775 145.315,241.693 145.630,241.693 146.400 M151.485 150.976 C 149.768 153.030,149.527 153.781,151.038 152.370 C 151.939 151.528,153.450 149.200,153.095 149.200 C 153.026 149.200,152.301 149.999,151.485 150.976 M174.054 152.326 C 174.025 152.836,173.805 153.616,173.568 154.061 C 173.330 154.505,173.235 154.968,173.356 155.090 C 173.712 155.445,174.452 153.132,174.273 152.226 C 174.125 151.481,174.104 151.491,174.054 152.326 M130.400 154.050 C 130.400 154.495,131.405 154.934,131.974 154.738 C 132.194 154.662,131.930 154.392,131.387 154.138 C 130.835 153.879,130.400 153.841,130.400 154.050 M146.200 154.400 C 145.467 154.715,145.484 154.746,146.400 154.766 C 146.950 154.778,147.670 154.613,148.000 154.400 C 148.787 153.891,147.384 153.891,146.200 154.400 M262.046 155.467 C 262.021 155.724,261.884 156.264,261.741 156.667 C 261.540 157.236,261.594 157.297,261.979 156.942 C 262.252 156.691,262.389 156.151,262.284 155.742 C 262.179 155.334,262.072 155.210,262.046 155.467 M236.800 156.320 C 236.800 156.495,236.125 156.884,235.300 157.184 C 234.475 157.484,234.013 157.801,234.273 157.889 C 234.807 158.069,237.018 157.018,237.398 156.403 C 237.535 156.181,237.457 156.000,237.224 156.000 C 236.991 156.000,236.800 156.144,236.800 156.320 M168.630 160.852 C 168.207 161.263,168.049 161.600,168.281 161.600 C 168.743 161.600,169.809 160.465,169.557 160.242 C 169.471 160.166,169.054 160.440,168.630 160.852 M167.200 164.501 C 167.200 164.572,168.055 165.330,169.100 166.184 C 170.847 167.612,170.903 167.632,169.800 166.434 C 168.744 165.287,167.200 164.139,167.200 164.501 M255.872 166.238 C 255.032 167.207,254.507 168.000,254.705 168.000 C 255.106 168.000,257.762 164.826,257.540 164.612 C 257.463 164.537,256.712 165.269,255.872 166.238 M242.600 174.000 C 241.511 174.277,241.493 174.307,242.400 174.325 C 242.950 174.335,243.760 174.189,244.200 174.000 C 245.186 173.576,244.266 173.576,242.600 174.000 M175.011 175.000 C 175.191 175.440,175.472 176.880,175.635 178.200 L 175.931 180.600 175.846 177.901 C 175.795 176.248,175.553 175.008,175.222 174.701 C 174.777 174.288,174.740 174.341,175.011 175.000 M217.467 175.867 C 216.936 176.397,217.160 194.012,217.700 194.191 C 218.615 194.496,225.600 194.605,225.600 194.314 C 225.600 194.157,223.845 193.977,221.700 193.914 L 217.800 193.800 217.800 185.000 L 217.800 176.200 226.600 175.988 L 235.400 175.776 226.567 175.688 C 221.708 175.640,217.613 175.720,217.467 175.867 M154.028 177.476 C 154.013 177.958,154.180 178.464,154.400 178.600 C 154.873 178.892,154.873 178.501,154.400 177.400 C 154.069 176.629,154.055 176.631,154.028 177.476 M155.314 182.600 C 155.317 183.700,155.395 184.103,155.487 183.495 C 155.579 182.886,155.577 181.986,155.482 181.495 C 155.387 181.003,155.311 181.500,155.314 182.600 M175.731 185.000 C 175.733 186.540,175.805 187.121,175.892 186.291 C 175.979 185.461,175.977 184.201,175.889 183.491 C 175.800 182.781,175.729 183.460,175.731 185.000 M153.823 188.206 C 152.960 190.272,153.074 190.506,154.047 188.662 C 154.493 187.816,154.765 187.032,154.652 186.919 C 154.539 186.806,154.166 187.385,153.823 188.206 M173.952 192.713 C 173.821 193.507,173.879 193.881,174.101 193.659 C 174.303 193.457,174.401 192.867,174.319 192.346 C 174.193 191.545,174.137 191.602,173.952 192.713 M130.468 193.600 C 130.690 194.274,145.693 194.708,148.019 194.108 C 148.676 193.939,145.242 193.860,140.389 193.934 C 133.463 194.039,131.425 193.953,130.917 193.534 C 130.369 193.082,130.300 193.092,130.468 193.600 M105.200 194.000 L 101.000 194.243 105.276 194.322 C 107.784 194.368,109.655 194.235,109.800 194.000 C 109.936 193.780,109.902 193.635,109.724 193.678 C 109.546 193.721,107.510 193.866,105.200 194.000 M187.384 204.700 L 187.400 211.000 206.400 211.006 L 225.400 211.012 206.510 210.902 L 187.620 210.792 187.494 204.596 L 187.369 198.399 187.384 204.700 M156.800 209.200 C 155.996 209.457,155.957 209.523,156.600 209.532 C 157.040 209.538,157.760 209.389,158.200 209.200 C 159.219 208.762,158.168 208.762,156.800 209.200 M151.834 210.300 C 151.669 210.465,140.254 210.700,126.467 210.822 L 101.400 211.044 126.800 211.015 C 145.307 210.995,152.471 210.860,153.200 210.519 L 154.200 210.051 153.167 210.025 C 152.598 210.011,151.998 210.135,151.834 210.300 " stroke="none" fill="#88bce4" fill-rule="evenodd"></path></g></svg>